<?xml version="1.0" encoding="utf-8"?>
<!-- Generator: Adobe Illustrator 16.0.3, SVG Export Plug-In . SVG Version: 6.00 Build 0)  -->
<!DOCTYPE svg PUBLIC "-//W3C//DTD SVG 1.1//EN" "http://www.w3.org/Graphics/SVG/1.1/DTD/svg11.dtd">
<svg version="1.1" id="Capa_1" xmlns="http://www.w3.org/2000/svg" xmlns:xlink="http://www.w3.org/1999/xlink" x="0px" y="0px"
	 width="321.928px" height="316.203px" viewBox="0 0 321.928 316.203" enable-background="new 0 0 321.928 316.203"
	 xml:space="preserve">
<g>
	<polygon fill="#FFFFFF" points="125.743,145.159 167.743,110.034 202.743,152.034 163.118,190.534 	"/>
	<path fill-rule="evenodd" clip-rule="evenodd" d="M200.563,0c7.543,16.73,13.652,33.767,11.424,52.623
		c-1.252,10.59-6.428,18.91-15.176,24.723c-4.234,2.813-6.769,6.201-7.558,11.84c6.716-1.809,13.12-4.048,19.714-5.188
		c9.813-1.697,16.244-5.846,20.271-15.907c4.309-10.766,8.229-20.601,5.188-32.585c-2.475-9.748-2.947-20.002-4.281-29.837
		c4.008,1.506,7.373,5.641,8.273,11.768c1.619,11.037,3.156,22.107,4.027,33.219c0.24,3.073-1.25,6.952-3.246,9.399
		c-5.162,6.325-9.357,12.916-10.662,21.107c-0.715,4.49-3.768,6.318-7.975,6.953c-6.252,0.943-12.574,1.678-18.686,3.221
		c-4.102,1.035-7.887,3.314-11.815,5.037c0.164,0.66,0.326,1.318,0.488,1.976c1.515,0.239,3.022,0.531,4.544,0.709
		c8.74,1.02,17.518,1.785,26.221,3.06c17.799,2.609,33.1-3.402,47.219-13.396c2.209-1.564,4.016-4.093,5.254-6.555
		c3.279-6.515,6.369-13.146,9.117-19.901c3.912-9.612,3.387-19.2-1.182-28.54c-0.787-1.61-1.598-3.209-2.703-5.427
		c1.434,0.132,2.824-0.067,3.021,0.327c5.314,10.663,12.295,21.04,6.635,33.854c-0.539,1.218-0.943,2.526-1.658,3.629
		c-4.58,7.054-8.035,14.405-8.846,23.026c-0.238,2.523-2.672,5.885-4.99,6.986c-10.479,4.977-21.066,9.928-32.059,13.529
		c-4.85,1.588-10.785,0.223-16.18-0.29c-10.57-1.006-21.102-2.416-31.664-3.494c-1.535-0.155-3.163,0.593-5.89,1.161
		c1.889,1.573,2.619,2.444,3.551,2.916c20.907,10.613,41.784,21.289,62.819,31.645c3.158,1.557,7.049,2.035,10.643,2.23
		c10.477,0.564,20.979,0.664,31.465,1.085c5.123,0.206,8.291-2.208,10.869-6.457c6.602-10.882,10.143-22.393,8.496-35.226
		c-0.18-1.405-0.025-2.854-0.025-5.23c6.453,7.547,8.156,15.182,5.551,23.767c-2.65,8.736-5.461,17.424-8.027,26.185
		c-1.076,3.672-3.602,4.995-6.822,4.043c-14.859-4.4-29.658-2.031-44.584-0.52c-4.088,0.414-8.867-1.348-12.645-3.382
		c-12.705-6.839-25.102-14.251-38.443-21.917c0.604,11.521,4.607,20.372,13.078,26.579c5.043,3.696,10.783,6.585,16.514,9.163
		c7.719,3.473,14.305,8.084,20.197,14.264c9.646,10.115,20.096,19.459,29.916,29.414c1.67,1.693,2.971,5.017,2.563,7.241
		c-0.949,5.183-2.832,10.235-4.725,15.192c-3.154,8.268-4.453,16.515-2.73,25.414c2.133,11.001-2.863,20.577-12.867,25.717
		c-4.043,2.079-8.453,3.445-12.816,4.582c3.836-3.376,7.891-6.539,11.451-10.184c4.537-4.646,7.021-10.363,7.814-16.913
		c1.436-11.884,2.785-23.799,4.893-35.572c1.107-6.194,0.033-10.837-4.375-15.385c-8.928-9.209-17.207-19.05-26.232-28.157
		c-3.752-3.784-8.459-6.864-13.209-9.353c-5.873-3.075-12.195-5.327-18.424-7.667c-2.01-0.755-4.299-3.584-6.523-0.276
		c-2.223,3.306-5.148,6.732-2.023,10.838c2.607,3.422,5.264,7.188,8.764,9.479c11.771,7.707,15.742,18.182,14.596,31.986
		c-0.992,11.947,0.83,23.857,3.988,35.586c0.84,3.122-0.49,7.835-2.52,10.55c-9.623,12.872-17.029,26.547-19.727,42.635
		c-0.451,2.696-3.002,5.486-5.309,7.316c-3.223,2.556-7.061,4.386-10.775,6.245c-1.604,0.802-3.561,0.901-5.447,1.342
		c4.826-5.667,10.391-10.353,13.574-16.311c7.354-13.768,14.574-27.788,19.785-42.44c2.559-7.19,0.99-16.045,0.453-24.091
		c-0.73-10.958-2.365-21.851-3.387-32.794c-0.363-3.904-1.645-6.941-4.887-9.316c-4.699-3.443-9.279-7.067-13.729-10.827
		c-1.232-1.04-1.824-2.836-2.938-4.658c-0.943,1.156-2.34,2.837-3.705,4.542c-7.301,9.106-16.409,16.002-26.474,21.755
		c-8.059,4.606-16.348,5.162-24.123,0.046c-8.166-5.37-15.929-11.39-23.58-17.486c-2.931-2.337-5.065-5.673-8.005-9.064
		c-6.839,7.86-12.896,14.678-18.735,21.678c-0.959,1.149-1.249,3.082-1.351,4.685c-1.072,16.788-2.118,33.578-2.957,50.378
		c-0.119,2.386,0.416,5.067,1.472,7.204c5.749,11.641,11.437,23.331,17.786,34.646c4.259,7.592,9.579,14.588,14.448,21.885
		c-1.199-0.342-3-0.55-4.497-1.336c-6.689-3.512-11.493-8.816-15.022-15.53c-6.036-11.484-12.118-22.962-18.71-34.13
		c-3.817-6.466-5.026-12.693-2.867-19.97c3.991-13.452,5.082-27.134,1.679-40.949c-1.325-5.377,0.816-9.245,5.072-12.527
		c4.869-3.754,9.792-7.558,14.051-11.958c6.941-7.173,6.918-14.202,0.986-21.971c-7.471,4.046-14.822,8.164-22.299,12.042
		c-8.291,4.301-14.813,10.246-20.459,17.826c-5.726,7.687-12.705,14.537-19.708,21.146c-5.426,5.119-7.506,10.305-5.496,17.749
		c2.426,8.981,4.151,18.187,5.602,27.387c2.317,14.692,5.629,20.526,16.075,32.461c-4.587-0.423-10.276-3.475-13.6-8.993
		c-2.944-4.89-5.177-10.397-6.693-15.916c-3.3-12.009-5.688-24.267-8.931-36.292c-2.648-9.821-2.029-12.666,6.207-18.71
		c9.924-7.281,18.397-16.044,24.816-26.463c4.899-7.952,11.902-12.836,19.898-16.795c2.233-1.105,4.514-2.245,6.901-2.89
		c16.324-4.403,22.352-16.884,25.851-33.503c-9.103,4.294-17.301,7.725-25.059,11.962c-5.961,3.257-11.458,7.401-16.994,11.382
		c-5.079,3.651-10.611,5.024-16.824,5.255c-12.945,0.482-25.893,1.261-38.799,2.374c-7.28,0.629-9.236-0.52-11.56-7.639
		c-1.636-5.018-3.65-10.002-6.202-14.609c-5.562-10.037-4.212-23.887,3.757-33.457c0.088,0.141,0.286,0.332,0.248,0.418
		c-5.973,13.541-0.793,25.299,4.908,37.553c4.36,9.373,10.18,12.422,20.005,10.57c6.34-1.195,12.926-1.172,19.411-1.479
		c8.289-0.395,15.839-2.445,23.113-6.846c14.82-8.965,30.434-16.217,46.983-21.789c6.398-2.154,11.287-8.795,16.864-13.392
		c-0.225-0.609-0.448-1.218-0.673-1.827c-4.206,0-8.544-0.67-12.594,0.129c-10.77,2.123-21.354,5.213-32.144,7.213
		c-4.178,0.775-8.975,0.506-13.022-0.771c-9.813-3.094-19.281-7.266-29.029-10.592c-5.417-1.848-8.234-5-9.914-10.614
		c-2.023-6.762-5.205-13.291-8.675-19.479c-4.841-8.634-5.007-16.851,1.007-25.275c-1.416,10.772,2.996,19.257,7.521,27.791
		c2.563,4.833,4.212,10.161,6.901,14.91c1.455,2.567,3.857,5.261,6.48,6.385c9.625,4.125,19.502,7.67,29.338,11.286
		c1.483,0.546,3.314,0.653,4.883,0.38c14.715-2.57,29.408-5.27,45.308-8.148c-7.395-4.57-14.023-7.723-21.964-7.493
		c-12.628,0.365-16.544-2.63-21.319-14.412c-2.804-6.916-6.576-13.436-9.775-20.2c-0.562-1.186-0.735-2.731-0.581-4.052
		c0.781-6.689,2.487-13.365,2.436-20.036c-0.07-9.223,1.716-17.422,8.719-25.108c-0.831,7.437-1.63,14.038-2.289,20.653
		c-0.761,7.622-2.779,15.437-1.812,22.849c2.318,17.759,10.124,36.114,31.104,36.522c5.154,0.102,10.264,2.5,15.7,3.922
		c0.373-5.801-1.564-10.23-6.68-13.268C114.49,70,107.029,53.807,109.555,38.665c0.986-5.91,2.245-11.774,3.242-17.683
		c1.471-8.717,4.821-16.237,12.774-20.982c1,0,2,0,3,0c-5.396,5.17-9.449,10.893-10.107,18.796
		c-0.463,5.566-1.744,11.13-3.244,16.533c-2.881,10.374-0.46,20.376,4.517,28.834c3.748,6.368,11.092,10.619,17.043,16
		c4.015-3.613,8.037-7.232,12.257-11.03c-4.492-4.913-3.658-9.888-1.768-15.227c1.777-5.027,2.863-10.299,4.393-15.977
		c0.318,0.18,1.602,0.511,2.242,1.338c2.584,3.34,3.172,6.958,2.182,11.255c-0.982,4.272-1.436,8.842-1.078,13.195
		c0.322,3.902,2.738,6.742,7.494,6.119c4.49-0.589,7.225-2.938,6.832-7.529c-0.363-4.265-1.334-8.501-2.32-12.683
		c-1.025-4.352,0.283-7.646,4.254-11.124c0.172,11.375,11.523,20.213,3.826,31.828c3.941,2.831,7.527,5.406,11.068,7.948
		c3.119-2.805,5.716-5.396,8.573-7.658c9.633-7.628,14.318-17.285,12.646-29.698c-0.334-2.471-0.348-5.008-0.908-7.422
		c-2.668-11.476-1.93-24.08-10.91-33.5C197.229,0,198.895,0,200.563,0z M163.417,148.307c0-3.294-0.023-5.611,0.004-7.928
		c0.043-3.662-1.004-7.527,3.773-9.708c1.078-0.492,1.545-4.319,0.912-6.126c-1.086-3.097-3.262-5.811-4.867-8.499
		c-1.434,2.499-2.656,5.048-4.26,7.331c-2.453,3.49-1.676,6.103,1.551,8.513c0.943,0.705,2.131,1.853,2.184,2.854
		c0.238,4.404,0.104,8.828,0.104,13.561c-4.9,0-9.045,0.082-13.184-0.06c-0.992-0.034-2.455-0.542-2.857-1.287
		c-2.809-5.196-6.297-4.39-10.304-1.587c-1.911,1.337-4.04,2.361-6.046,3.512c2.727,1.598,5.125,3.553,7.868,4.426
		c2.049,0.654,6.107,0.659,6.578-0.329c2.441-5.124,6.697-3.94,10.664-3.968c7.295-0.049,7.332-0.012,7.275,7.219
		c-0.031,4.106,1.193,8.498-3.801,11.256c-0.984,0.544-0.975,4.248-0.314,6.101c1.025,2.878,3,5.419,4.596,8.141
		c1.494-2.58,2.979-5.316,4.627-7.948c1.984-3.166,1.439-6.026-1.695-7.605c-2.674-1.347-2.873-3.176-2.818-5.601
		c0.307-13.457-2.432-11.45,12.025-11.562c1.426-0.012,3.357,0.541,4.205,1.547c4.16,4.924,5.111,5.157,10.658,1.635
		c1.911-1.211,3.917-2.277,5.733-3.326c-2.512-1.486-4.987-2.781-7.28-4.348c-3.451-2.361-6.109-1.801-8.463,1.614
		c-0.65,0.941-1.885,2.024-2.9,2.076C172.951,148.437,168.5,148.307,163.417,148.307z"/>
</g>
</svg>
